<svg id="Layer_6" data-name="Layer 6" xmlns="http://www.w3.org/2000/svg" viewBox="0 0 59.78 66.27"><defs><style>.cls-1{fill:#daa58d;}.cls-2{fill:#492e2e;}.cls-3{fill:#fff;}.cls-4{fill:#87a7b2;}.cls-5{fill:#92b7f7;}.cls-6{fill:#3a2626;}.cls-7{fill:#c9886f;}.cls-8{fill:#3f6772;}.cls-9{fill:#bbe0ea;}.cls-10{fill:#966868;}.cls-11{fill:#f9cdbb;}.cls-12,.cls-13{fill:#3d2626;}.cls-13{stroke:#000;stroke-miterlimit:10;}</style></defs><title>GuyHatzAi</title><path class="cls-1" d="M1249,735.73h0q0,.35-.06.72a11.88,11.88,0,0,1-8.69,10.64s-19.17,4.16-23-10.2,4-20.1,4-20.1c.79-3.25-1.61-9.47-1.61-9.47,6-7.18,18.4-7.41,22-6.16a9,9,0,0,1,3.67,3.09,29,29,0,0,1,3,5.08l.43,5.34.83,10.32S1249.71,727.52,1249,735.73Z" transform="translate(-1203.67 -693.6)"/><path class="cls-2" d="M1216.12,727.83s1.11-9.83,5.64-10.83c0,0,.16-8.52-2.11-9.55s-6.27,2-7.19,3.72-1.83,13.58-1.83,13.58l1.28-.51,4.34,3.95Z" transform="translate(-1203.67 -693.6)"/><path class="cls-2" d="M1250.8,720.18l-1.15,3.57-1.11-14.5c-2.17-3.75-7.16-7.83-7.16-7.83-20.76-.25-21.37,6.28-21.37,6.28-2.78-1.88-6.26,1.55-6.26,1.55H1210c10.5-14.25,22.54-11.75,22.54-11.75a8.26,8.26,0,0,0-3.46-2.21,14.91,14.91,0,0,0-1.53-.46c7.72-2.33,12.29,2.09,12.29,2.09.46.08.89.17,1.31.28a12.39,12.39,0,0,1,1.49.5c7.89,3.16,8,12.88,8,12.88l.06,6.28Z" transform="translate(-1203.67 -693.6)"/><path class="cls-2" d="M1224,717.71s4.17-4,11-1.46c0,0,.42-3.08-5.25-3C1229.71,713.25,1224.54,713.43,1224,717.71Z" transform="translate(-1203.67 -693.6)"/><path class="cls-2" d="M1242,715.33a7.82,7.82,0,0,1,6.94,1.33c3.39,2.58,0,.17,0,.17s1.34-1.74-2.72-2.87C1246.18,714,1242.79,712.58,1242,715.33Z" transform="translate(-1203.67 -693.6)"/><path class="cls-2" d="M1249.29,736.67s-.37,5.57-4.85,8.62a11.38,11.38,0,0,1-5.38,1.88c-9.6,1-14.37-.12-19.7-5.23,0,0-2.86-5.06-2.67-9.25l3.85,1.31,1,3s3-5.1,4.67-5.1c0,0,8.72.59,11.36-.4l0,0a1.91,1.91,0,0,0,.32-.16h0a10.57,10.57,0,0,0,1,.4,15.53,15.53,0,0,0,5.61.83,10.15,10.15,0,0,0,2.28-.38Z" transform="translate(-1203.67 -693.6)"/><path class="cls-3" d="M1228,733.77l17.21-.38s-.12,2.94-4.14,4.28S1229.71,738.63,1228,733.77Z" transform="translate(-1203.67 -693.6)"/><path class="cls-1" d="M1212.21,723.92s-2,.86-2.17,2.44,2.41,9.92,3.5,10.24a11.93,11.93,0,0,0,3.14.17l-.4-7.85Z" transform="translate(-1203.67 -693.6)"/><path class="cls-1" d="M1243.95,751.75l-2.47-.49-.55,2.25-.64,2.57h-1l.74-.22-14.34-1c-1.25-3.85-11.95-9.87-11.95-9.87l1.13-5.24h1.4c0,1.68,4.93,6.5,4.93,6.5,8.46,5.94,19.87,3.31,19.87,3.31l.53-.13,2-.5Z" transform="translate(-1203.67 -693.6)"/><path class="cls-4" d="M1242.73,746.49a3.84,3.84,0,0,1-.67.32h0Z" transform="translate(-1203.67 -693.6)"/><path class="cls-4" d="M1262.24,759.38h-58.45l.87-4s1.14-1.65,3.68-.11c0,0,.62-9.72,2.2-10.22h2.21l12.87,11.08h14.87l.44-2.57.55-2.25,2.47.49-.32-2.8-.26-2.3,1.23,5.35,5.69,2.33,6.67-.66Z" transform="translate(-1203.67 -693.6)"/><polygon class="cls-4" points="40.28 58.15 37.81 57.66 37.26 59.91 37.94 55.85 39.96 55.35 40.28 58.15"/><path class="cls-3" d="M1243.75,718.6c-2.54,1-2.39,2.08-2.39,2.08l3.29,1.37,1.51-1.2.73-1.36-.33-.64Z" transform="translate(-1203.67 -693.6)"/><path class="cls-5" d="M1245.82,720.08a1.42,1.42,0,1,1-1.4-1.64A1.54,1.54,0,0,1,1245.82,720.08Z" transform="translate(-1203.67 -693.6)"/><path class="cls-3" d="M1228.75,718.6c-2.54,1-2.39,2.08-2.39,2.08l3.29,1.37,1.51-1.2.73-1.36-.33-.64Z" transform="translate(-1203.67 -693.6)"/><path class="cls-5" d="M1230.82,720.08a1.42,1.42,0,1,1-1.4-1.64A1.54,1.54,0,0,1,1230.82,720.08Z" transform="translate(-1203.67 -693.6)"/><path class="cls-6" d="M1213.88,711.63a19.83,19.83,0,0,1,3.94-1.11,22.79,22.79,0,0,1,2.94-.35l-1.39-2.72s-4.14.06-5.78,2.32S1210,723.2,1211,724.62l2.33-1.91Z" transform="translate(-1203.67 -693.6)"/><polygon class="cls-6" points="8.03 27.27 9.87 28.2 12.87 32.36 12.61 35.45 8.23 30.64 7.28 31.02 7.54 28.76 8.03 27.27"/><path class="cls-6" d="M1218,733.13s.75,6.33,2.79,7.92,13.66,9.55,26.22.9l.78-.38-1.58,2.73S1235,753.11,1220,743c0,0-2.58-3.33-3.35-10.35Z" transform="translate(-1203.67 -693.6)"/><path class="cls-6" d="M1221.83,739.82l-1.88-2.4-.17-2.29s-.5,6.58,6.67,9.38l-.62,1-7.13-5.58-1.69-7.27,3.53,1.31S1222.13,738.09,1221.83,739.82Z" transform="translate(-1203.67 -693.6)"/><path class="cls-6" d="M1227.17,733.63s-1.37,4.92,6.21,6a11.49,11.49,0,0,0,11.19-4.46S1233.37,743.71,1227.17,733.63Z" transform="translate(-1203.67 -693.6)"/><path class="cls-6" d="M1233.13,699a35.33,35.33,0,0,0-11.48,2.72c-2.44,1-3.29,3.3-6.51,4.8a4.11,4.11,0,0,1,.54-3.45c2.07-2.49,7.63-5,16.94-5.4l.76,1.33Z" transform="translate(-1203.67 -693.6)"/><polygon class="cls-6" points="16.72 12.16 12.07 12.4 11.7 11.15 12.07 9.67 6.73 14.1 5.64 16.06 9.9 16.17 12.87 14.31 15.97 13.85 16.72 12.16"/><path class="cls-7" d="M1237.57,718.08s-1.53,5.83.31,7.58a4.53,4.53,0,0,1,1.17,4.21,1.07,1.07,0,0,0,1.36-.81c.39-1.15-.53-3.72-1.36-4.1S1237.57,718.08,1237.57,718.08Z" transform="translate(-1203.67 -693.6)"/><path class="cls-7" d="M1223.2,718.28s7.84-2.38,11.84-1.41a10.12,10.12,0,0,0-2.81-1.34C1231.29,715.42,1224.6,716,1223.2,718.28Z" transform="translate(-1203.67 -693.6)"/><path class="cls-7" d="M1241.21,716s4.56-.19,7.49,1.68c0,0,.14-2.27-1.72-2.25S1242.87,714,1241.21,716Z" transform="translate(-1203.67 -693.6)"/><path class="cls-7" d="M1228.22,730.68s-4.34.32-5.59,2.45l-.25,1.75-.64-3-3.36-.81s-1.71-9.78,3.81-13c0,0,3-5.56,0-10.08,0,0,10.74-7,16.55-6.83l-9.89.69s-8.75,2.83-8.77,5.6,1.3.47,1.39,9.63c0,0-5.7,3.33-5.06,14.16v1.44l4.89,1.08.44,4.56.22-1.75,2-3,2.92-1.67Z" transform="translate(-1203.67 -693.6)"/><path class="cls-7" d="M1213.75,730a21.37,21.37,0,0,1,.75,4.6S1217.54,731.59,1213.75,730Z" transform="translate(-1203.67 -693.6)"/><path class="cls-7" d="M1211,727.25l.91-1.67s3.41,3,3.34,4.18.58,5.07-.83,6.32l-.08.72h3.12l-1.14-7.75-4.25-5-1.76,1.57a18,18,0,0,0,2.43,9.9Z" transform="translate(-1203.67 -693.6)"/><path class="cls-4" d="M1243.63,749l-2,.5.45-2.64a3.84,3.84,0,0,0,.67-.32s0,0,0,0l.63.16Z" transform="translate(-1203.67 -693.6)"/><path class="cls-7" d="M1242.06,746.81l-.45,2.64-.53.13s-11.41,2.63-19.87-3.31c0,0-4.94-4.82-4.93-6.5h-1.4l.33,5.19s9.83,5.1,11.08,8.95l13.75,2-.74.22h-13.68l-12.26-10.74v-8.25c.65.51,3.81-.63,3.81-.63l.46,1.87c3.33,7.17,5.66,8.34,15.36,9C1238.2,747.69,1240.78,747.27,1242.06,746.81Z" transform="translate(-1203.67 -693.6)"/><path class="cls-7" d="M1243.37,746.65l-.63-.16c.48-.28.55-.52.55-.52Z" transform="translate(-1203.67 -693.6)"/><polygon class="cls-8" points="40.73 57.53 39.67 52.8 38.39 53.21 37.72 57.14 40.73 57.53"/><path class="cls-8" d="M1226.46,758.25l-5.67-4.34s-7.08-6.74-8-6.82l-1.88.42a19.06,19.06,0,0,1,.16,6.83l2.8,5.05h-9.71l.53-4s1.12-1.53,3.62-.77c0,0,1.09-8.23,2.26-9.56l2.21-.25,12.95,11.11Z" transform="translate(-1203.67 -693.6)"/><path class="cls-8" d="M1212.29,756.59a55.1,55.1,0,0,0,13.55,1.66l14.12,1.33-26.92-.42Z" transform="translate(-1203.67 -693.6)"/><polygon class="cls-9" points="56.37 65.48 51.31 61.4 43.01 60.73 44.62 60.73 37.5 58.46 37.72 57.14 48.05 60.59 52.45 59.91 59.28 65.78 56.37 65.48"/><path class="cls-9" d="M1238,731.33a10.57,10.57,0,0,0,1,.4l-1.42-.21,0,0,.32-.16Z" transform="translate(-1203.67 -693.6)"/><path class="cls-10" d="M1249.29,736.67s-.37,5.57-4.85,8.62a16.38,16.38,0,0,0,2.77-8.83,29.06,29.06,0,0,1-1.74-3.77l-.87-.13a10.15,10.15,0,0,0,2.28-.38Z" transform="translate(-1203.67 -693.6)"/><path class="cls-10" d="M1250.77,716.86l-.36-.53-.82-6.33s-3.3-10.67-7.8-11.58l-1.58-.92,1-.3c9.36,2.47,9.52,13.38,9.52,13.38Z" transform="translate(-1203.67 -693.6)"/><path class="cls-10" d="M1242.68,697.7l-.39,1.63s-5.93-4.58-13.17-4a14.91,14.91,0,0,0-1.53-.46c7.72-2.33,12.29,2.09,12.29,2.09.46.08.89.17,1.31.28A12.39,12.39,0,0,1,1242.68,697.7Z" transform="translate(-1203.67 -693.6)"/><path class="cls-11" d="M1249,735.85l-.5-2.08-1.08-24a41,41,0,0,1-2.94-5.28l.85-.11a29,29,0,0,1,3,5.08l.43,5.34.83,10.32S1249.65,727.64,1249,735.85Z" transform="translate(-1203.67 -693.6)"/><path class="cls-12" d="M1235.17,748.25a42.87,42.87,0,0,1-6.22-.5c-10.52-1.55-12.92-8.49-13.18-19.21v-.08h0c0-.13,0-.29,0-.46,0-.39,0-.84.5-.84l.5.53v0h0c.16,10.64,2.28,17.53,12.34,19,10.61,1.57,16.71-.61,18.68-6.66,2.11-6.5,1.15-17.69,1.14-17.8l-1.16-12.9c-.41-.77-3.61-6.62-6.81-7.5-3.52-1-17.18.09-20.89,5.82l-.84-.54c4.21-6.5,18.83-7.11,22-6.24,3.84,1,7.33,7.8,7.48,8.09l.05.18,1.17,13c0,.47,1,11.51-1.19,18.2C1247,745.66,1242.56,748.25,1235.17,748.25Z" transform="translate(-1203.67 -693.6)"/><path class="cls-12" d="M1216.78,731.25l-1-1.94a15.4,15.4,0,0,0-4.08-4.56l-1.3,1,0-1c0-.45-.31-11,2.25-14.8a7.17,7.17,0,0,1,7.08-3l.2,0,.11.17c2.3,3.48,1.71,9.54,1.69,9.79l0,.26-.22.13c-4.69,2.66-4.72,11.65-4.72,11.74Zm-5-7.74.3.21a19.14,19.14,0,0,1,3.81,3.74c.24-2.83,1.18-8.51,4.92-10.84.08-1.13.3-5.88-1.43-8.71a6,6,0,0,0-5.85,2.63c-2,2.86-2.1,10.51-2.09,13.23Z" transform="translate(-1203.67 -693.6)"/><path class="cls-12" d="M1213.56,710.17l-4.67-.2.42-.72c.08-.13,8-13.25,23.3-12.25l-.07,1c-12.62-.83-20,8.37-21.9,11l3,.13Z" transform="translate(-1203.67 -693.6)"/><path class="cls-12" d="M1242.63,700c-.44-.59-1.34-.77-1.8-1.25a12.5,12.5,0,0,0-11.6-3.9c2.73.89,3.88,2.36,4.36,3.51a1.74,1.74,0,0,1-.29,1.67h0c0-.06-.35-.74-.76-1.55-.57-1.1-2-2.5-5.38-3.11l-1.66-.3,1.55-.66a13.55,13.55,0,0,1,14.76,3.92c.39.43.44,1.16.82,1.67Z" transform="translate(-1203.67 -693.6)"/><path class="cls-12" d="M1250.14,727.42l-1-.18c0-.16,2.87-16.08-.52-22.85s-9.08-7.1-9.33-7.12l.06-1c.27,0,6.57.5,10.16,7.67S1250.26,726.76,1250.14,727.42Z" transform="translate(-1203.67 -693.6)"/><path class="cls-13" d="M1219.64,707.45" transform="translate(-1203.67 -693.6)"/><path class="cls-12" d="M1223.06,718.71l.42-1.35c0-.05,1.6-5,6.71-4.26s5,2.9,4.93,3.14l-.08.64-.6-.23c-5.18-2-10.15,1.25-10.2,1.28Zm6.14-4.69a4.77,4.77,0,0,0-4.11,2.29,12.65,12.65,0,0,1,8.54-1,6.94,6.94,0,0,0-3.58-1.24A6.12,6.12,0,0,0,1229.2,714Z" transform="translate(-1203.67 -693.6)"/><path class="cls-12" d="M1248.48,717.57l-.49-.68c-1.74-2.41-6.2-1-6.25-1l-.73.23.26-.72s1-2.55,4.42-1.91a3.74,3.74,0,0,1,2.58,1.45,2.54,2.54,0,0,1,.38,1.83Zm-4-2.86a5.45,5.45,0,0,1,3.31.94,1.74,1.74,0,0,0-.17-.32,3.05,3.05,0,0,0-2.08-1.12,3.28,3.28,0,0,0-3.07.71A10.63,10.63,0,0,1,1244.51,714.7Z" transform="translate(-1203.67 -693.6)"/><path class="cls-12" d="M1244.53,722.28a7,7,0,0,1-3.19-1.05l-.42-.26.21-.5a3.9,3.9,0,0,1,2.13-2.31,4.36,4.36,0,0,1,3.49.44l.26.16v.35a3.18,3.18,0,0,1-1.08,2.77A2.38,2.38,0,0,1,1244.53,722.28Zm-3-1.61c.88.44,2.86,1.34,3.67.78a1.92,1.92,0,0,0,1.17-2.34,3.92,3.92,0,0,0-2.72-.41A6.71,6.71,0,0,0,1241.53,720.67Z" transform="translate(-1203.67 -693.6)"/><path class="cls-12" d="M1237.68,717.92a23.63,23.63,0,0,1,.73,3.3c.11.54.16,1.08.26,1.6a8.58,8.58,0,0,0,.3,1.43l0,.09v0a.16.16,0,0,0,0-.06l-.07,0,.09.07.2.17a5.67,5.67,0,0,1,.65.68,6,6,0,0,1,1,1.61,2.82,2.82,0,0,1,.11,2,1.88,1.88,0,0,1-1.53,1.11l0-.09a1.83,1.83,0,0,0,1.06-1.14,2.33,2.33,0,0,0-.3-1.56,6.28,6.28,0,0,0-.95-1.34,6.42,6.42,0,0,0-.59-.57,1.32,1.32,0,0,1-.53-.68,15.4,15.4,0,0,1-.4-3.33q-.07-1.67,0-3.34Z" transform="translate(-1203.67 -693.6)"/><path class="cls-12" d="M1236.32,739.08c-4.87,0-9.15-3.4-9.15-5.46v-.5h18.31v.5C1245.47,735.68,1241.19,739.08,1236.32,739.08Zm-8-5c.7,1.45,4,4,8,4s7.31-2.51,8-4Z" transform="translate(-1203.67 -693.6)"/><polygon class="cls-12" points="24.54 40.07 26.43 40.57 26.51 40.59 26.53 40.6 28.12 41.66 28.09 41.65 30.04 42.48 27.98 41.98 27.98 41.98 27.95 41.97 26.21 41.19 26.31 41.23 24.36 41.06 24.54 40.07"/><polygon class="cls-12" points="41.52 40.84 39.14 41.74 39.1 41.75 36.82 42.15 38.97 41.29 38.93 41.31 41.08 39.95 41.52 40.84"/><path class="cls-12" d="M1214.21,737.42c-2.35,0-4.61-8.44-4.82-9.57a4,4,0,0,1,1.81-3.94l.53.85a3,3,0,0,0-1.36,2.9c.59,3,2.83,8.76,3.84,8.76a19.21,19.21,0,0,0,2.87-.21l.17,1A20,20,0,0,1,1214.21,737.42Z" transform="translate(-1203.67 -693.6)"/><path class="cls-12" d="M1212.51,727a5.42,5.42,0,0,1,.3,1.36c.05.41,0,.78.06,1.1s0,.55,0,.73.2.48.65.82v.1a1.56,1.56,0,0,1-1.24-.39,1.92,1.92,0,0,1-.44-1.24,7.43,7.43,0,0,1,.55-2.53Z" transform="translate(-1203.67 -693.6)"/><path class="cls-12" d="M1213.57,729.88a2.1,2.1,0,0,1,1.47.58,2.68,2.68,0,0,1,.82,1.4,2.59,2.59,0,0,1-.17,1.63,2.14,2.14,0,0,1-1.1,1.12l-.09,0a4.4,4.4,0,0,0,.42-1.22,3,3,0,0,0,0-1.27,3.65,3.65,0,0,0-1.36-2.12Z" transform="translate(-1203.67 -693.6)"/><path class="cls-12" d="M1240.91,756.59l-16-.26-.14-.27c-.58-1.15-7.39-6.86-11.82-10.42l-.19-.15v-9.41h1V745c1.7,1.36,10.22,8.26,11.73,10.33l14.59.24,1.5-8.86,1,.17Z" transform="translate(-1203.67 -693.6)"/><polygon class="cls-12" points="18.27 46.48 17.48 44.49 16.92 40.79 12.87 39.59 13.15 38.63 17.81 40.01 18.51 44.64 18.27 46.48 18.27 46.48"/><path class="cls-12" d="M1221.76,737.09l.14-.52c.13-.21,2.13-4.83,5.83-6.09.37-.13.81.2,1.22.15h0c-.4.05-.71.72-1.09.86C1224.44,732.72,1221.79,737,1221.76,737.09Z" transform="translate(-1203.67 -693.6)"/><path class="cls-12" d="M1242.92,733.19a11.35,11.35,0,0,1-5-1c-3,1-11.7.31-12.08.28l.08-1c.09,0,9.33.73,11.85-.3l.23-.1.22.13s2.93,1.71,8.55.52l.21,1A19.59,19.59,0,0,1,1242.92,733.19Z" transform="translate(-1203.67 -693.6)"/><path class="cls-12" d="M1249.41,737l-1.53-1.32c-1.91-4.77-2.25-5.89-4.25-5.78h0c2.45-.65,3.28.66,5.18,5.41l.53,1.32Z" transform="translate(-1203.67 -693.6)"/><path class="cls-12" d="M1245.19,720.2a.75.75,0,1,1-.74-.86A.81.81,0,0,1,1245.19,720.2Z" transform="translate(-1203.67 -693.6)"/><path class="cls-12" d="M1208.23,755.46c-1-3.87,1.74-10.38,1.86-10.66l.13-.3h2.54v1h-1.88c-.53,1.32-1.51,7.61-.69,10.7Z" transform="translate(-1203.67 -693.6)"/><path class="cls-12" d="M1263.46,759.88h-59.78l.33-4.41a2.82,2.82,0,0,1,2.84-1.54c1.83.18,5.92,5,6.52,5.77l-1.23-.82h51.33Zm-58.71-1h6.48c-1.34-1.64-3.48-3.86-4.48-4a1.79,1.79,0,0,0-1.79.89Z" transform="translate(-1203.67 -693.6)"/><polygon class="cls-12" points="22.16 62.26 22.47 62.44 22.79 64.65 21.27 62.7 22.16 62.26"/><rect class="cls-12" x="1243.42" y="746.35" width="1" height="5.73" transform="translate(-1345.53 -378.3) rotate(-13.67)"/><polygon class="cls-12" points="46.1 60.73 37.36 57.49 37.73 56.56 48.55 60.06 46.1 60.73"/><polygon class="cls-12" points="59.13 66.24 52.29 60.54 46.1 60.8 42.84 60.75 42.84 60.75 52.61 59.51 59.77 65.47 59.13 66.24"/><path class="cls-3" d="M1246,719.93a.52.52,0,1,1-.51-.6A.56.56,0,0,1,1246,719.93Z" transform="translate(-1203.67 -693.6)"/><path class="cls-3" d="M1244.36,720.58a.17.17,0,1,1-.17-.2A.19.19,0,0,1,1244.36,720.58Z" transform="translate(-1203.67 -693.6)"/><path class="cls-12" d="M1229.53,722.28a7,7,0,0,1-3.19-1.05l-.42-.26.21-.5a3.9,3.9,0,0,1,2.13-2.31,4.36,4.36,0,0,1,3.49.44l.26.16v.35a3.18,3.18,0,0,1-1.08,2.77A2.38,2.38,0,0,1,1229.53,722.28Zm-3-1.61c.88.44,2.86,1.34,3.67.78a1.92,1.92,0,0,0,1.17-2.34,3.92,3.92,0,0,0-2.72-.41A6.71,6.71,0,0,0,1226.53,720.67Z" transform="translate(-1203.67 -693.6)"/><path class="cls-12" d="M1230.19,720.2a.75.75,0,1,1-.74-.86A.81.81,0,0,1,1230.19,720.2Z" transform="translate(-1203.67 -693.6)"/><path class="cls-3" d="M1231,719.93a.52.52,0,1,1-.51-.6A.56.56,0,0,1,1231,719.93Z" transform="translate(-1203.67 -693.6)"/><path class="cls-3" d="M1229.36,720.58a.17.17,0,1,1-.17-.2A.19.19,0,0,1,1229.36,720.58Z" transform="translate(-1203.67 -693.6)"/></svg>